<svg width="189" height="189" viewBox="0 0 189 189" fill="none" xmlns="http://www.w3.org/2000/svg">
<g filter="url(#filter0_d_133_53)">
<path fill-rule="evenodd" clip-rule="evenodd" d="M115.119 99.5213C113.017 101.574 110.777 103.328 108.424 104.742V118.517C108.424 123.272 113.045 132.211 116.103 137.369C121.2 141.219 124.315 146.368 124.315 152.026H62.5474C62.5474 145.552 66.6255 139.744 73.0843 135.788C76.0732 130.534 79.8749 122.779 79.8749 118.466L79.8749 104.742C77.5217 103.328 75.2814 101.574 73.1802 99.5213L73.1279 99.522C59.5665 99.699 50.5831 93.562 45.0693 85.7746C39.6864 78.1721 37.6681 69.1209 37.4194 63.0429L37.2764 59.5491L40.7705 59.3764L55.7794 58.6344C55.5064 55.8163 55.365 52.9332 55.365 50H132.934C132.934 52.9332 132.792 55.8163 132.519 58.6344L147.528 59.3764L151.022 59.5491L150.879 63.0429C150.631 69.1209 148.612 78.1721 143.229 85.7746C137.716 93.562 128.732 99.699 115.171 99.522L115.119 99.5213ZM121.397 91.8855C128.922 90.5551 133.972 86.5195 137.382 81.7033C140.84 76.8194 142.645 71.0543 143.353 66.3599L131.525 65.7752C129.689 75.813 126.145 84.772 121.397 91.8855ZM66.9021 91.8855C62.1541 84.772 58.6096 75.813 56.7739 65.7752L44.9456 66.3599C45.6535 71.0543 47.4588 76.8194 50.9168 81.7033C54.3268 86.5194 59.3768 90.5551 66.9021 91.8855Z" fill="white"/>
</g>
<defs>
<filter id="filter0_d_133_53" x="27.2764" y="40" width="133.746" height="122.026" filterUnits="userSpaceOnUse" color-interpolation-filters="sRGB">
<feFlood flood-opacity="0" result="BackgroundImageFix"/>
<feColorMatrix in="SourceAlpha" type="matrix" values="0 0 0 0 0 0 0 0 0 0 0 0 0 0 0 0 0 0 127 0" result="hardAlpha"/>
<feOffset/>
<feGaussianBlur stdDeviation="5"/>
<feComposite in2="hardAlpha" operator="out"/>
<feColorMatrix type="matrix" values="0 0 0 0 0 0 0 0 0 0 0 0 0 0 0 0 0 0 0.1 0"/>
<feBlend mode="normal" in2="BackgroundImageFix" result="effect1_dropShadow_133_53"/>
<feBlend mode="normal" in="SourceGraphic" in2="effect1_dropShadow_133_53" result="shape"/>
</filter>
</defs>
</svg>
