<svg width="189" height="189" viewBox="0 0 189 189" fill="none" xmlns="http://www.w3.org/2000/svg">
<g clip-path="url(#clip0_133_70)">
<g filter="url(#filter0_d_133_70)">
<path d="M51.5692 53.3731L51.3626 53.4099L51.2226 53.4729L50.1281 54.0839L48.9284 53.6346L47.5769 53.5482L46.2817 52.9869L45.9325 53.0541L45.6838 53.5793L45.3642 54.3679L44.5174 54.4904L44.0245 54.5325L43.5649 54.724L42.6852 55.0143L41.8677 54.5273L41.5259 54.2727L41.1175 54.2667L39.7979 54.0328L38.8448 53.1228L38.3475 52.6894L37.6939 52.7888L37.2835 52.8723L36.9002 52.7608L35.465 52.3711L34.1363 53.0114L33.4264 53.25L32.7205 53.1403L32.4505 52.6677L32.6763 52.0973L32.7516 51.9201L32.6782 51.7737L32.2348 51.5358L32.1903 51.0752L32.6805 50.4218L33.3701 49.9715L33.7187 49.8685L34.0436 49.6987L34.2787 49.0703L33.7491 48.6579L33.2262 48.3789L33.1559 47.8192L32.9972 47.256L32.5088 47.2384L29.98 47.5823L27.4399 47.457L26.875 47.5971L26.3965 47.9138L25.4112 48.8049L24.1712 49.292L23.312 49.0998L23.4281 48.2453L23.662 47.4933L23.685 46.7184L23.644 46.3756L23.7482 46.103L24.8156 45.0739L25.9708 44.1507L26.1908 44.0922L26.4181 44.0448L26.8594 43.8657L27.0351 43.491L26.7422 43.2491L26.3149 43.2805L25.6089 43.2687L25.2555 42.7412L25.5518 42.1378L26.2207 41.9614L27.0075 41.7074L27.5517 41.0792L26.9661 40.9463L26.3975 41.0186L25.766 40.8647L25.3692 40.3904L25.4534 39.6849L25.9641 39.2615L26.525 38.8817L26.6916 38.2631L26.8601 37.8966L27.2161 37.6823L27.5422 37.3L27.4063 36.8274L27.0636 36.6481L26.7573 36.9141L26.6743 36.9817L26.6073 37.0074L25.6251 36.9741C23.7182 38.9917 23.6114 37.1605 24.0396 35.5286L25.1641 34.4638L25.5405 34.3179L25.5543 33.9371L25.1043 33.5L24.4865 33.5783L24.0821 33.9059L23.6016 33.7281L23.4249 33.1744L23.8081 32.7391L23.9793 32.4852L23.8099 32.2181L23.6019 31.8644L23.5391 31.4561L23.7374 31.1159L23.6251 30.7886L23.1034 30.6827L22.5705 30.888L22.2824 31.147L21.9538 31.1684L21.8128 30.7651L21.9478 30.3159L22.0639 29.9934L22.2561 29.763L22.688 29.2487L22.4822 28.623L22.4974 28.3035L22.7064 28.0937L23.795 27.6058L24.8234 27.1385L24.6095 26.9856L24.383 27.0025L24.0632 26.978L23.8924 26.7184L23.9431 26.4039L24.1814 26.1886L24.401 26.0688L24.5975 26.0394L26.1432 26.1431L27.6616 25.6726L27.5643 24.9744L28.2652 24.7632L29.1224 24.5334L29.6396 23.7548L29.8805 24.6175L30.4286 25.2149L31.2789 25.3968L32.1661 25.4034L33.3719 25.3904L34.5291 25.0024L35.2685 24.8333L35.499 25.8227L36.2916 24.9595L37.1347 25.4221L37.876 25.2909L38.5264 24.8806L38.4516 24.7294L38.3129 24.6318L38.0336 24.6457L37.773 24.6338L37.3232 24.4874L37.0091 24.1862L37.2111 23.8944L37.5326 23.6375L37.2777 23.4947L36.9791 23.5367L36.7948 23.5503L36.659 23.4465L36.642 23.0542L36.8634 22.7984L37.0859 22.2383L37.5419 21.9703L38.0006 21.9816L38.3819 21.7883L39.3276 21.3462L40.3258 21.0174L41.3447 20.484L42.356 19.8487L43.2819 19.6041L43.6949 20.4441L43.813 20.6813L44.0634 20.6613L44.5707 20.44L45.0783 20.2198L45.5471 19.8549L45.9997 19.8252L46.4977 20.33L46.5206 21.1046L46.5121 21.4035L46.5907 21.8005L47.0739 21.2676L47.7468 21.0518L48.3597 21.3656L48.7798 21.8816L49.039 22.1325L49.3422 22.3537L50.0286 22.995L50.3651 23.8269L50.7544 24.8394L51.8052 25.1511L54.3025 25.3853L56.7587 25.8203L58.8886 26.4295L61.0479 26.8322L63.8442 27.103L66.6091 27.5692L67.2336 27.5799L67.8263 27.3204L69.0168 26.8051C69.0168 26.8051 69.8682 27.7732 69.8816 27.7881C71.4921 29.6188 75.3057 29.9635 77.6642 31.2283C82.3864 33.7601 87.9237 34.7317 93.2289 33.9965C93.884 33.906 94.4348 34.4339 94.4428 35.0954C94.4435 35.1144 94.4435 35.1343 94.4447 35.1533C95.4349 34.2032 96.9537 33.8434 98.2651 34.2486C98.8832 34.4396 99.25 35.5783 98.6092 35.486C100.588 36.0736 102.484 36.9355 104.228 38.0398C105.144 36.2306 107.864 36.4841 109.619 37.4986C113.147 39.5363 114.956 40.4821 118.871 39.8015L119.176 39.517L119.399 39.1937L120.056 38.8984L120.593 39.3373L120.954 39.8907L121.243 40.4406L121.814 41.2838L122.761 41.6359L123.302 41.6948L123.76 41.4694L124.475 41.1023L125.279 41.2825L125.664 41.9088L125.541 42.6013L125.297 43.6254L124.728 44.524L124.498 45.0652L124.79 45.5758L125.255 45.6624L125.528 45.2668L125.726 45.0724L125.926 44.8787L126.162 44.661L126.468 44.6842L126.696 44.9643L126.632 45.3246L126.568 46.1703L127.301 46.5906L128.938 47.207L130.482 48.0302L131.24 48.2072L132.013 48.0866L133.09 48.1518L133.529 49.1251L133.732 49.7281L134.105 50.2518L135.708 51.3431L137.54 51.795L138.479 51.7692L139.456 51.91L140.565 52.5871L141.242 53.5945L142.024 54.4983L143.176 54.3034L144.103 54.0299L145.046 53.8008L145.533 53.8293L145.883 54.0794L146.553 54.6309L147.248 54.1365L147.45 54.044L147.65 54.1656L148.44 54.6811L149.382 54.6665L150.025 54.698L150.667 54.7818L151.189 54.7251L151.259 54.2003L151.081 53.1982L151.509 52.4181L152.564 52.2948L153.614 52.7308L154.956 53.4439L156.424 53.8158L156.995 53.9616L157.386 54.2984L158.265 55.0782L159.41 55.0555L160.528 55.3267L161.14 56.2383L161.427 57.3552L161.341 58.5577L161.374 59.4825L161.949 60.3067L162.681 60.4605L163.388 60.1348L165.113 59.8831L166.7 60.528L167.376 60.6559L167.957 60.4056L168.413 60.2345L168.798 60.3396L168.727 60.7234L168.308 60.9068L168.095 61.4921L168.405 62.0217L168.945 62.4804L169.647 62.2713L170.13 61.8388L170.735 61.4952L172.702 61.5163L174.244 62.5875L175.6 63.2478L177.029 63.4343L177.28 63.3664L177.474 63.1771L178.66 62.017L180.237 61.5405L181.694 61.223L183.1 61.9645L183.569 62.1296L184.162 62.1813L184.17 63.3288L185.273 64.0022L185.862 64.3987L185.809 65.102L185.224 65.7429L184.39 65.6319L183.84 65.3035L183.254 65.4329L182.984 66.0895L183.225 66.7865L183.659 67.6362L184.226 68.4242L184.581 70.3438L183.686 72.0607L182.255 73.2537L180.794 74.3828L180.248 74.6946L179.659 74.9607L178.819 75.2896L178.125 75.9041L177.732 76.2775L177.192 76.4488L174.548 77.2157L172.09 78.4575L170.433 79.5043L169.229 81.0713L168.323 81.8881L167.088 82.1575L163.67 82.6553L160.276 83.2963L158.481 83.5948L156.806 84.1818L155.442 84.7074L154.036 84.9381L152.445 85.5442L151.143 86.6464L150.264 87.587L149.353 88.5078L149.017 89.1234L149.597 89.5622L150.02 89.7372L150.226 90.1279L150.355 90.3655L150.553 90.5506L150.952 90.564L151.171 90.7956L150.918 91.2861L150.406 91.5093L149.093 91.8434L147.737 92.0095L147.197 92.0967L146.738 92.5356L145.385 94.6311L143.883 96.5914L142.647 98.2154L141.101 99.5516L140.544 99.985L140.225 100.592L139.623 101.624L138.631 102.261L138.374 102.391L138.187 102.575L136.526 104.646L134.887 106.729L134.862 106.769L134.842 106.81L133.671 108.943L132.268 110.933L131.976 111.764L132.003 112.625L132.359 114.238L132.791 115.83L132.953 117.067L133.022 118.3L134.085 120.768L136.154 122.468L137.512 123.516L138.49 124.913L138.464 125.248L138.167 125.49L137.185 126.023L136.546 126.97L136.297 127.147L135.91 127.033L134.931 126.931L134.466 127.793L134.157 128.299L133.6 128.474L132.201 128.766L130.796 129.031L129.985 129.335L129.495 129.949L128.973 130.813L128.074 131.211L127.207 131.853L127.141 132.921L127.04 133.497L126.616 133.742L125.247 134.644L124.832 136.192L124.574 137.054L124.009 137.757L123.576 138.2L123.342 138.825L123.18 139.704L122.408 140.315L121.898 140.869L121.571 141.75L121.873 142.446L122.543 143.025L123.039 143.269L123.254 143.744L122.838 144.138L122.242 144.16L121.246 144.26L120.258 144.488L119.777 144.509L119.35 144.199L119.088 143.943L118.742 143.813L115.579 143.737L112.516 144.533L112.378 144.585L112.273 144.658L110.508 145.95L108.669 146.955L107.056 148.143L106.201 149.989L106.07 150.499L105.668 150.923L105.194 151.431L104.934 152.061L104.523 153.238L103.467 153.906L103.322 154.003L103.23 154.17L102.405 155.418L101.229 156.343L100.251 156.857L99.3819 156.095L98.921 155.356L98.2951 154.745L97.589 154.409L96.8301 154.502L96.4707 154.562L96.1381 154.445L94.694 154.259L93.5819 155.274L92.4598 156.295L91.2671 156.378L90.3989 155.973L89.6172 155.445L89.0253 155.086L88.3764 154.941L86.8578 154.76L85.3423 154.554L83.7893 154.416L82.2437 154.664L80.6634 154.617L79.2451 153.89L78.955 153.654L78.6259 153.537L76.8909 153.342L75.2305 152.978L73.1479 152.71L71.0511 152.755L69.543 152.73L68.0634 152.377L67.4575 152.393L66.9259 152.746L65.2903 154.099L63.4975 155.246L62.3588 155.479L61.2018 155.08L60.5807 154.787L59.9809 154.767L57.5363 155.326L55.1018 155.893L54.9678 155.953L54.8693 156.038L53.5294 157.506L52.159 158.944L51.7998 159.371L51.2052 159.33L50.5305 159.341L50.2816 159.965L50.3115 160.948L49.7623 161.66L48.4708 161.79L47.2895 161.292L46.1673 160.571L45.0852 159.799L44.6681 159.437L44.3222 159.008L43.5452 158.049L42.4096 157.572L42.0361 157.452L41.8192 157.186L40.8747 155.016L39.8788 152.873L39.6754 152.163L39.4921 151.447L39.4387 150.627L40.243 150.364L40.6171 150.245L40.4758 149.856L39.8612 149.255L39.0476 148.915L38.0921 148.426L37.8036 146.949L38.1817 146.258L38.9586 146.071L39.2244 146.006L39.4809 145.949L38.084 143.427L36.4227 141.068L35.3803 140.029L34.2215 139.121L33.2055 138.407L32.2171 137.645L31.1337 136.899L29.8363 136.529L28.1793 136.3L26.553 135.893L26.0291 136.153L25.5856 136.001L25.2852 134.854L25.368 133.649L25.6873 131.723L25.2164 129.83L25.1792 129.51L25.3549 129.253L26.0908 128.33L26.6019 127.259L27.338 126.289L28.3926 125.671L29.7807 124.355L30.6051 122.659L31.0094 122.154L31.5623 122.267L32.0479 122.409L32.4737 122.077L32.9474 121.896L33.4273 122.176L34.2728 122.4L34.8482 121.804L35.0068 121.492L35.3086 121.314L35.6579 121.052L35.7123 120.591L35.5075 119.58L34.4814 119.668L33.6993 119.654L33.2575 119.034L32.5466 116.653L31.5152 114.4L31.53 113.488L32.0014 112.725L32.5662 111.832L32.7842 110.747L33.1077 110L33.8724 109.485L35.1582 108.674L36.5355 108.036L36.7496 107.907L36.7702 107.707L36.8298 106.557L37.6921 105.816L38.2247 105.102L38.188 104.201L37.7381 103.614L37.0514 103.478L36.3408 103.414L36.1335 102.743L36.0227 102.346L35.71 102.079L35.2523 101.561L35.1457 100.896L35.0919 99.816L34.5618 98.8603L34.4031 98.3344L34.6035 97.8118L34.7724 97.1093L34.2681 96.6342L33.8812 96.2759L33.9361 95.7335L33.9553 95.2325L33.6652 94.8186L33.1899 93.9748L32.8497 93.0782L32.7782 92.8601L32.8629 92.6575L33.0974 92.5529L33.3586 92.6419L34.7556 93.1527L36.2686 93.1916L37.2433 93.3015L38.2249 93.6076L39.6735 93.6843L40.4362 92.4663L40.7641 91.8226L41.2075 91.2413L42.4226 89.3423L42.5631 87.0749L42.3666 86.5366L41.9481 86.1131L41.5729 85.4258L41.5616 84.6083L41.7709 84.1562L42.2988 83.913L42.6106 83.8105L42.9267 83.7671L43.8397 83.5356L44.5825 82.9064L45.0653 82.0164L45.0703 81.0566L45.1142 80.3383L45.5756 79.7558L45.9962 79.2874L45.8738 78.663L45.7366 78.2897L45.8091 77.9571L46.2211 76.7257L46.152 75.4342L46.1754 74.5752L46.5917 73.788L46.6793 73.5297L46.5735 73.2721L46.1839 71.9092L45.8109 70.5361L45.7772 70.1677L46.1982 70.1054L47.52 70.1478L48.228 68.9678L48.6503 68.6027L49.0942 68.3582L50.5429 67.3683L52.2553 67.014L52.7263 66.8422L53.1605 66.5735L53.9962 65.8621L54.9542 65.3017L55.2624 65.065L55.4776 64.6846L56.0428 63.7432L56.8657 63.0205L57.2943 62.4154L57.086 61.6624L55.8736 60.3857L54.1276 60.1191L53.1582 59.5131L53.3497 58.1412L53.8099 56.6358L53.8853 55.1207L53.794 54.8007L53.4197 54.7592L53.0078 54.7859L52.5947 54.7651L51.5062 54.4899L51.5692 53.3731Z" fill="white"/>
</g>
<path fill-rule="evenodd" clip-rule="evenodd" d="M106.58 79.7905C106.58 79.7904 106.58 79.7903 106.58 79.7902C106.58 72.1741 100.406 66 92.7902 66C85.1741 66 79 72.1741 79 79.7902C79 79.8627 79.0006 79.9351 79.0017 80.0073C79.0532 97.1367 85.2021 110.988 92.7818 111H92.8013C100.413 110.988 106.582 97.0197 106.582 79.7905H106.58Z" fill="#53585C"/>
<circle cx="92.669" cy="81.1207" r="7.37899" fill="white"/>
</g>
<defs>
<filter id="filter0_d_133_70" x="13.8125" y="15.604" width="180.05" height="158.187" filterUnits="userSpaceOnUse" color-interpolation-filters="sRGB">
<feFlood flood-opacity="0" result="BackgroundImageFix"/>
<feColorMatrix in="SourceAlpha" type="matrix" values="0 0 0 0 0 0 0 0 0 0 0 0 0 0 0 0 0 0 127 0" result="hardAlpha"/>
<feOffset dy="4"/>
<feGaussianBlur stdDeviation="4"/>
<feComposite in2="hardAlpha" operator="out"/>
<feColorMatrix type="matrix" values="0 0 0 0 0 0 0 0 0 0 0 0 0 0 0 0 0 0 0.1 0"/>
<feBlend mode="normal" in2="BackgroundImageFix" result="effect1_dropShadow_133_70"/>
<feBlend mode="normal" in="SourceGraphic" in2="effect1_dropShadow_133_70" result="shape"/>
</filter>
<clipPath id="clip0_133_70">
<rect width="188.5" height="188.5" fill="white"/>
</clipPath>
</defs>
</svg>
