<svg width="189" height="189" viewBox="0 0 189 189" fill="none" xmlns="http://www.w3.org/2000/svg">
<path fill-rule="evenodd" clip-rule="evenodd" d="M146.306 88.0578C148.606 86.7202 150.909 85.3924 153.213 84.064L153.214 84.0639C154.764 83.1701 156.315 82.276 157.865 81.3785C158.569 80.9438 159.273 80.5035 159.976 80.0633L159.978 80.0622C161.384 79.1823 162.79 78.3023 164.202 77.4663C166.651 76.0393 169.104 74.6339 171.556 73.2284L171.556 73.2283C174.009 71.8228 176.461 70.4173 178.91 68.9902C180.496 68.0584 181.504 66.252 181.281 63.6695C181.072 61.223 180.296 59.1479 178.361 58.9134C177.151 58.7716 175.941 58.6152 174.73 58.4587L174.73 58.4587C171.784 58.0779 168.836 57.6969 165.881 57.5265C162.227 57.32 158.566 57.284 154.907 57.248L154.907 57.248C153.267 57.2318 151.627 57.2157 149.989 57.1842C149.575 57.2626 149.164 57.3409 148.752 57.4193C148.34 57.4978 147.927 57.5763 147.513 57.6548C146.198 57.8997 144.884 58.1447 143.569 58.3899L146.306 88.0578Z" fill="white"/>
<ellipse cx="158.072" cy="67.7359" rx="9.5" ry="4" transform="rotate(-17.2745 158.072 67.7359)" fill="white"/>
<ellipse cx="93.5" cy="95.5" rx="70.5" ry="67.5" fill="white"/>
<path d="M101.372 78.2881C101.337 81.0043 99.1991 83.0432 96.4194 83.0079C94.2041 82.9797 91.7912 80.4117 91.8336 78.1258C91.8829 75.4166 94.0983 73.4271 96.9979 73.4765C99.6577 73.5188 101.407 75.4519 101.372 78.2881Z" fill="#54595D"/>
<path d="M29.128 98.3738C27.2866 69.7442 45.5311 46.0602 69.977 37.0156C76.9757 34.4264 84.1719 33.0294 91.6785 33.0012C97.76 32.9801 103.785 33.2199 109.683 34.7086C124.823 38.5324 137.247 46.5188 146.61 59.1122C147.132 59.8106 147.583 60.5655 148.063 61.2922C147.357 61.391 146.659 61.4897 145.953 61.5885C137.205 62.7949 128.457 64.0084 119.701 65.1937C118.911 65.2995 118.029 65.4688 117.31 65.236C112.632 63.7333 107.934 62.5057 103.016 61.8284C97.5766 61.0805 92.2359 61.2781 86.9234 62.2023C76.115 64.0719 66.6329 69.0317 58.0751 75.6564C51.5491 80.7008 45.4958 86.3449 39.0686 91.5233C35.9362 94.042 32.4509 96.1091 29.128 98.3738Z" fill="#1D9AD6"/>
<path d="M155.181 75.0425C155.978 79.0851 156.91 83.0994 157.516 87.1702C157.897 89.7383 157.855 92.3769 157.883 94.9873C158.003 105.528 155.336 115.377 150.356 124.612C144.803 134.912 136.923 143.025 127.01 149.192C126.418 149.558 125.747 149.798 125.112 150.095C124.865 150.201 124.626 150.299 124.379 150.405L124.4 150.391C123.871 150.49 123.313 150.511 122.819 150.694C118.53 152.275 114.12 153.142 109.528 153.008C102.127 152.783 96.9695 148.176 96.1653 141.516C95.7702 138.256 95.6573 134.806 96.2711 131.603C99.2483 115.913 107.446 103.397 119.983 93.5692C127.525 87.657 135.716 82.9442 144.57 79.339C148.105 77.8927 151.647 76.4747 155.181 75.0425Z" fill="#68BE5E"/>
<path d="M155.182 75.0424C151.64 76.4746 148.098 77.8926 144.564 79.3319C135.71 82.937 127.519 87.6499 119.977 93.562C107.44 103.39 99.2418 115.906 96.2645 131.596C95.6578 134.799 95.7707 138.249 96.1587 141.509C96.963 148.169 102.12 152.776 109.521 153.001C114.114 153.142 118.523 152.268 122.813 150.687C123.307 150.504 123.864 150.483 124.393 150.384C120.329 152.797 115.899 154.215 111.32 155.28C107.278 156.218 103.2 156.388 99.3335 154.885C97.224 154.067 95.1357 152.719 93.5624 151.103C90.5358 148.006 89.1953 143.95 89.2517 139.695C89.4704 123.751 95.8412 110.269 106.339 98.5923C117.225 86.4787 130.757 78.3583 145.961 72.8553C150.913 71.0633 155.866 69.2854 160.812 67.4793C161.461 67.2465 162.06 66.8796 162.681 66.5692C162.632 66.3646 162.59 66.1529 162.54 65.9484C160.72 65.9484 158.9 65.8707 157.094 65.9695C154.991 66.0895 152.889 66.3293 150.793 66.5763C147.365 66.9855 143.929 67.3876 140.507 67.8815C135.54 68.6011 130.581 69.363 125.628 70.1885C123.074 70.6118 120.555 71.2185 118.015 71.7265C117.726 71.7829 117.387 71.7406 117.091 71.6559C112.802 70.4636 108.583 68.7986 104.216 68.1707C99.6862 67.5216 94.9734 67.4511 90.4158 67.8815C76.9618 69.1514 66.2733 76.3899 56.1986 84.6585C50.7027 89.1738 45.4184 93.943 39.9436 98.4936C38.0176 100.095 35.8728 101.457 33.7281 102.762C31.28 104.243 29.6784 103.305 29.4315 100.427C29.3751 99.7423 29.2269 99.058 29.1211 98.3736C32.444 96.1019 35.9363 94.0418 39.0547 91.5231C45.4819 86.3447 51.5352 80.7006 58.0611 75.6562C66.626 69.0385 76.1081 64.0788 86.9095 62.2021C92.229 61.2779 97.5626 61.0874 103.002 61.8282C107.92 62.4984 112.618 63.7331 117.296 65.2358C118.015 65.4686 118.897 65.2993 119.687 65.1935C128.443 64.0082 137.191 62.7947 145.94 61.5883C146.645 61.4895 147.343 61.3908 148.049 61.292C152.578 61.292 157.115 61.2003 161.644 61.3131C165.214 61.4049 168.777 61.7365 172.34 61.9693C173.998 62.0822 174.696 63.2604 174.915 64.6573C175.148 66.1318 174.315 67.1759 172.975 67.7262C168.833 69.4124 164.678 71.0492 160.537 72.7354C158.745 73.4762 156.967 74.2734 155.182 75.0424Z" fill="#53585C"/>
<path fill-rule="evenodd" clip-rule="evenodd" d="M148.063 61.2922C149.46 61.2922 150.858 61.2834 152.256 61.2747C155.385 61.2551 158.516 61.2354 161.644 61.3134C164.174 61.3784 166.701 61.5639 169.227 61.7493C170.265 61.8255 171.302 61.9017 172.34 61.9695C173.998 62.0824 174.696 63.2606 174.915 64.6575C175.148 66.132 174.315 67.1762 172.975 67.7265C170.904 68.5695 168.83 69.4002 166.756 70.2309L166.754 70.2316C164.68 71.0621 162.607 71.8927 160.537 72.7356C159.342 73.2294 158.154 73.7483 156.965 74.2672L156.965 74.2674C156.371 74.5268 155.777 74.7863 155.182 75.0426L155.181 75.0428C155.415 76.2305 155.661 77.4157 155.907 78.6007L155.907 78.6009L155.907 78.6014L155.907 78.6015C156.498 81.4495 157.088 84.2958 157.516 87.1702C157.843 89.3708 157.859 91.6232 157.874 93.8653C157.877 94.2397 157.879 94.6138 157.883 94.9873C158.003 105.528 155.336 115.377 150.356 124.612C144.803 134.912 136.923 143.025 127.01 149.192C126.751 149.352 126.477 149.488 126.197 149.616C126.015 149.735 125.832 149.854 125.649 149.972C125.233 150.239 124.779 150.442 124.326 150.645C124.123 150.735 123.921 150.826 123.722 150.922C123.597 150.977 123.473 151.031 123.349 151.085C123.226 151.139 123.102 151.193 122.977 151.248L122.998 151.233C122.935 151.246 122.871 151.257 122.807 151.267C119.187 153.156 115.31 154.352 111.32 155.28C107.278 156.219 103.2 156.388 99.3335 154.885C97.224 154.067 95.1357 152.719 93.5624 151.104C90.5358 148.007 89.1953 143.95 89.2517 139.696C89.4704 123.751 95.8412 110.269 106.339 98.5926C117.225 86.479 130.757 78.3585 145.961 72.8555C147.518 72.2921 149.075 71.73 150.632 71.168C154.027 69.9427 157.421 68.7178 160.812 67.4796C161.268 67.3159 161.7 67.0859 162.132 66.8559C162.315 66.7587 162.497 66.6616 162.681 66.5694C162.657 66.4672 162.634 66.3633 162.611 66.2593L162.611 66.2591L162.611 66.259C162.588 66.155 162.565 66.0509 162.54 65.9486C161.984 65.9486 161.427 65.9413 160.871 65.9341C159.608 65.9176 158.347 65.9012 157.094 65.9698C154.991 66.0897 152.889 66.3296 150.793 66.5765L149.991 66.6721C146.829 67.0489 143.662 67.4263 140.507 67.8817C135.54 68.6013 130.581 69.3633 125.628 70.1887C123.97 70.4634 122.328 70.8154 120.685 71.1675C119.796 71.3579 118.907 71.5484 118.015 71.7267C117.726 71.7832 117.387 71.7408 117.091 71.6562C115.746 71.2824 114.409 70.8622 113.071 70.442C110.142 69.5218 107.214 68.602 104.216 68.171C99.6862 67.5219 94.9734 67.4513 90.4158 67.8817C76.9618 69.1516 66.2733 76.3902 56.1986 84.6587C53.2711 87.0638 50.4037 89.541 47.5356 92.0188C45.0192 94.1927 42.5022 96.3671 39.9436 98.4938C38.0176 100.095 35.8728 101.457 33.7281 102.762C31.28 104.244 29.6784 103.305 29.4315 100.427C29.3929 99.9587 29.3113 99.4904 29.2298 99.0222C29.1922 98.8061 29.1545 98.59 29.1211 98.3739L29.1277 98.3693C27.2885 69.7417 45.5324 46.0598 69.977 37.0156C76.9757 34.4264 84.1719 33.0294 91.6785 33.0012C97.76 32.9801 103.785 33.2199 109.683 34.7086C124.823 38.5324 137.247 46.5188 146.61 59.1122C146.974 59.5993 147.304 60.1139 147.632 60.6272C147.775 60.8499 147.918 61.0723 148.063 61.2922L148.063 61.2922ZM96.4197 83.0077C99.1995 83.043 101.337 81.004 101.372 78.2878C101.408 75.4517 99.658 73.5186 96.9983 73.4762C94.0986 73.4269 91.8833 75.4164 91.8339 78.1256C91.7916 80.4114 94.2044 82.9795 96.4197 83.0077Z" fill="#1D9AD6"/>
</svg>
