<svg width="177" height="177" viewBox="0 0 177 177" fill="none" xmlns="http://www.w3.org/2000/svg">
<path fill-rule="evenodd" clip-rule="evenodd" d="M63.1229 61.9761C67.3283 59.6405 71.7517 57.7523 76.43 56.4429C71.7503 57.751 67.3269 59.6392 63.1229 61.9761ZM86.0699 54.6331C90.0141 54.2421 93.9792 54.2805 98.0021 54.8284C98.8497 54.9439 99.6907 55.0762 100.526 55.2238C99.6953 55.0767 98.8589 54.9445 98.0161 54.8284C93.9894 54.2748 90.0169 54.2392 86.0699 54.6331ZM103.461 55.8069C106.447 56.464 109.375 57.2978 112.296 58.236C112.565 58.3231 112.857 58.3539 113.158 58.3529C112.862 58.3529 112.575 58.3217 112.31 58.236C109.385 57.2963 106.451 56.4642 103.461 55.8069ZM143.063 54.2922C144.46 54.2922 145.858 54.2834 147.256 54.2747C150.385 54.2551 153.516 54.2354 156.644 54.3134C159.174 54.3784 161.701 54.5639 164.227 54.7493C165.265 54.8255 166.302 54.9017 167.34 54.9695C168.998 55.0824 169.696 56.2606 169.915 57.6575C170.148 59.132 169.315 60.1762 167.975 60.7265C165.904 61.5695 163.83 62.4002 161.756 63.2309C159.682 64.0617 157.607 64.8925 155.537 65.7356C154.342 66.2294 153.154 66.7484 151.965 67.2673C151.371 67.5268 150.777 67.7863 150.182 68.0426C150.182 68.0426 150.182 68.0426 150.182 68.0427C150.416 69.2302 150.662 70.4153 150.907 71.6002L150.907 71.6007C151.498 74.4489 152.088 77.2955 152.517 80.1702C152.843 82.3708 152.859 84.6232 152.874 86.8653C152.877 87.2397 152.88 87.6138 152.884 87.9873C153.004 98.5276 150.337 108.377 145.356 117.612C139.804 127.912 131.923 136.025 122.011 142.192C121.601 142.445 121.154 142.638 120.708 142.831L120.708 142.831L120.707 142.831C120.508 142.917 120.309 143.003 120.113 143.095C119.989 143.148 119.868 143.199 119.746 143.25C119.624 143.301 119.502 143.352 119.379 143.405L119.4 143.391C119.391 143.393 119.382 143.394 119.373 143.396C115.315 145.802 110.891 147.217 106.32 148.28C102.278 149.219 98.1997 149.388 94.3335 147.885C92.224 147.067 90.1357 145.719 88.5624 144.104C85.5358 141.007 84.1953 136.95 84.2517 132.696C84.4704 116.751 90.8412 103.269 101.339 91.5926C112.225 79.479 125.757 71.3585 140.961 65.8555C142.518 65.2922 144.074 64.7303 145.631 64.1685C149.026 62.943 152.421 61.7179 155.812 60.4796C156.268 60.3159 156.7 60.0859 157.132 59.8559C157.315 59.7587 157.497 59.6616 157.681 59.5694C157.657 59.4671 157.634 59.3631 157.611 59.259C157.588 59.155 157.565 59.0509 157.54 58.9486C156.984 58.9486 156.427 58.9413 155.871 58.9341C154.608 58.9176 153.347 58.9012 152.094 58.9698C149.991 59.0897 147.889 59.3296 145.793 59.5765C145.526 59.6084 145.259 59.6403 144.991 59.6721C141.829 60.0489 138.662 60.4263 135.507 60.8817C130.54 61.6013 125.581 62.3633 120.628 63.1887C118.97 63.4634 117.328 63.8154 115.685 64.1675C114.796 64.3579 113.907 64.5484 113.015 64.7267C112.726 64.7832 112.387 64.7408 112.091 64.6562C110.746 64.2824 109.409 63.8622 108.071 63.442C105.142 62.5218 102.214 61.602 99.2156 61.171C94.6862 60.5219 89.9734 60.4513 85.4158 60.8817C71.9618 62.1516 61.2733 69.3902 51.1986 77.6587C48.2711 80.0638 45.4037 82.541 42.5356 85.0188C40.0192 87.1927 37.5022 89.3671 34.9436 91.4938C33.0176 93.0953 30.8728 94.4569 28.7281 95.7621C26.28 97.2437 24.6784 96.3054 24.4315 93.4269C24.3929 92.9587 24.3113 92.4904 24.2298 92.0222C24.1922 91.8061 24.1545 91.59 24.1211 91.3739C24.1233 91.3724 24.1255 91.3708 24.1277 91.3693C22.2885 62.7417 40.5324 39.0598 64.977 30.0156C71.9757 27.4264 79.1719 26.0294 86.6785 26.0012C92.76 25.9801 98.7851 26.2199 104.683 27.7086C119.823 31.5324 132.247 39.5188 141.61 52.1122C141.974 52.5993 142.303 53.1138 142.632 53.6271C142.775 53.8498 142.918 54.0723 143.063 54.2922C143.063 54.2922 143.063 54.2922 143.063 54.2922ZM94.7595 142.103C92.7949 140.144 91.531 137.541 91.1656 134.516C90.7705 131.256 90.6577 127.806 91.2715 124.603C94.2487 108.913 102.447 96.3969 114.984 86.5692C122.526 80.657 130.717 75.9442 139.571 72.339C141.857 71.4036 144.146 70.48 146.434 69.5567L146.436 69.5561L146.439 69.5545C147.607 69.0836 148.774 68.6127 149.94 68.1405C148.709 68.6378 147.479 69.1335 146.249 69.6291C144.019 70.5276 141.79 71.4256 139.564 72.3321C130.71 75.9373 122.519 80.6501 114.977 86.5623C102.44 96.39 94.2418 108.906 91.2645 124.596C90.6578 127.799 90.7707 131.249 91.1587 134.509C91.5245 137.538 92.791 140.143 94.7595 142.103ZM91.4197 76.0077C94.1995 76.043 96.3371 74.004 96.3724 71.2878C96.4077 68.4517 94.658 66.5186 91.9983 66.4762C89.0986 66.4269 86.8833 68.4164 86.8339 71.1256C86.7916 73.4114 89.2044 75.9795 91.4197 76.0077Z" fill="white"/>
</svg>
