<svg width="177" height="177" viewBox="0 0 177 177" fill="none" xmlns="http://www.w3.org/2000/svg">
<ellipse cx="153.072" cy="60.7359" rx="9.5" ry="4" transform="rotate(-17.2745 153.072 60.7359)" fill="white"/>
<ellipse cx="88.5" cy="88.5" rx="70.5" ry="67.5" fill="white"/>
<path d="M96.3724 71.2878C96.3371 74.004 94.1995 76.043 91.4197 76.0077C89.2044 75.9795 86.7916 73.4114 86.8339 71.1256C86.8833 68.4164 89.0986 66.4269 91.9983 66.4762C94.658 66.5186 96.4077 68.4517 96.3724 71.2878Z" fill="#54595D"/>
<path d="M24.128 91.3738C22.2866 62.7442 40.5311 39.0602 64.977 30.0156C71.9757 27.4264 79.1719 26.0294 86.6785 26.0012C92.76 25.9801 98.7851 26.2199 104.683 27.7086C119.823 31.5324 132.247 39.5188 141.61 52.1122C142.132 52.8106 142.583 53.5655 143.063 54.2922C142.357 54.391 141.659 54.4897 140.953 54.5885C132.205 55.7949 123.457 57.0084 114.701 58.1937C113.911 58.2995 113.029 58.4688 112.31 58.236C107.632 56.7333 102.934 55.5057 98.0161 54.8284C92.5766 54.0805 87.2359 54.2781 81.9234 55.2023C71.115 57.0719 61.6329 62.0317 53.0751 68.6564C46.5491 73.7008 40.4958 79.3449 34.0686 84.5233C30.9362 87.042 27.4509 89.1091 24.128 91.3738Z" fill="#1D9AD6"/>
<path d="M150.182 68.0425C150.979 72.0851 151.91 76.0994 152.517 80.1702C152.898 82.7383 152.855 85.3769 152.884 87.9873C153.004 98.5276 150.337 108.377 145.356 117.612C139.804 127.912 131.923 136.025 122.011 142.192C121.418 142.558 120.748 142.798 120.113 143.095C119.866 143.201 119.626 143.299 119.379 143.405L119.4 143.391C118.871 143.49 118.314 143.511 117.82 143.694C113.53 145.275 109.121 146.142 104.528 146.008C97.1272 145.783 91.9699 141.176 91.1656 134.516C90.7705 131.256 90.6577 127.806 91.2715 124.603C94.2487 108.913 102.447 96.3969 114.984 86.5692C122.526 80.657 130.717 75.9442 139.571 72.339C143.105 70.8927 146.647 69.4747 150.182 68.0425Z" fill="#68BE5E"/>
<path d="M150.182 68.0426C146.64 69.4748 143.098 70.8929 139.564 72.3321C130.71 75.9373 122.519 80.6501 114.977 86.5623C102.44 96.39 94.2418 108.906 91.2645 124.596C90.6578 127.799 90.7707 131.249 91.1587 134.509C91.963 141.169 97.1203 145.776 104.521 146.002C109.114 146.143 113.523 145.268 117.813 143.687C118.307 143.504 118.864 143.483 119.393 143.384C115.329 145.797 110.899 147.215 106.32 148.28C102.278 149.219 98.1997 149.388 94.3335 147.885C92.224 147.067 90.1357 145.719 88.5624 144.104C85.5358 141.007 84.1953 136.95 84.2517 132.696C84.4704 116.751 90.8412 103.269 101.339 91.5926C112.225 79.479 125.757 71.3585 140.961 65.8555C145.913 64.0635 150.866 62.2857 155.812 60.4796C156.461 60.2467 157.06 59.8799 157.681 59.5694C157.632 59.3648 157.59 59.1532 157.54 58.9486C155.72 58.9486 153.9 58.871 152.094 58.9698C149.991 59.0897 147.889 59.3296 145.793 59.5765C142.365 59.9857 138.929 60.3878 135.507 60.8817C130.54 61.6013 125.581 62.3633 120.628 63.1887C118.074 63.612 115.555 64.2188 113.015 64.7267C112.726 64.7832 112.387 64.7408 112.091 64.6562C107.802 63.4639 103.583 61.7989 99.2156 61.171C94.6862 60.5219 89.9734 60.4513 85.4158 60.8817C71.9618 62.1516 61.2733 69.3902 51.1986 77.6587C45.7027 82.174 40.4184 86.9433 34.9436 91.4938C33.0176 93.0953 30.8728 94.4569 28.7281 95.7621C26.28 97.2437 24.6784 96.3054 24.4315 93.4269C24.3751 92.7425 24.2269 92.0582 24.1211 91.3739C27.444 89.1021 30.9363 87.042 34.0547 84.5233C40.4819 79.3449 46.5352 73.7008 53.0611 68.6564C61.626 62.0387 71.1081 57.079 81.9095 55.2023C87.229 54.2781 92.5626 54.0876 98.0021 54.8284C102.92 55.4986 107.618 56.7333 112.296 58.236C113.015 58.4689 113.897 58.2995 114.687 58.1937C123.443 57.0084 132.191 55.795 140.94 54.5885C141.645 54.4898 142.343 54.391 143.049 54.2922C147.578 54.2922 152.115 54.2005 156.644 54.3134C160.214 54.4051 163.777 54.7367 167.34 54.9695C168.998 55.0824 169.696 56.2606 169.915 57.6575C170.148 59.132 169.315 60.1762 167.975 60.7265C163.833 62.4127 159.678 64.0494 155.537 65.7356C153.745 66.4764 151.967 67.2736 150.182 68.0426Z" fill="#53585C"/>
</svg>
